<?xml version="1.0" encoding="UTF-8" standalone="no"?>
<!-- Created with Inkscape (http://www.inkscape.org/) -->

<svg
   xmlns:dc="http://purl.org/dc/elements/1.1/"
   xmlns:cc="http://creativecommons.org/ns#"
   xmlns:rdf="http://www.w3.org/1999/02/22-rdf-syntax-ns#"
   xmlns:svg="http://www.w3.org/2000/svg"
   xmlns="http://www.w3.org/2000/svg"
   xmlns:sodipodi="http://sodipodi.sourceforge.net/DTD/sodipodi-0.dtd"
   xmlns:inkscape="http://www.inkscape.org/namespaces/inkscape"
   width="11.288889mm"
   height="11.288889mm"
   viewBox="0 0 40 39.999999"
   id="svg4224"
   version="1.1"
   inkscape:version="0.91 r13725"
   sodipodi:docname="icon.svg"
   inkscape:export-filename="/home/trees/src/github.sptk_dsp/icon/icon.svg.png"
   inkscape:export-xdpi="144"
   inkscape:export-ydpi="144">
  <defs
     id="defs4226" />
  <sodipodi:namedview
     id="base"
     pagecolor="#ffffff"
     bordercolor="#666666"
     borderopacity="1.0"
     inkscape:pageopacity="0.0"
     inkscape:pageshadow="2"
     inkscape:zoom="3.959798"
     inkscape:cx="-18.308228"
     inkscape:cy="-5.060156"
     inkscape:document-units="px"
     inkscape:current-layer="layer1"
     showgrid="false"
     fit-margin-top="0"
     fit-margin-left="0"
     fit-margin-right="0"
     fit-margin-bottom="0"
     inkscape:window-width="1680"
     inkscape:window-height="996"
     inkscape:window-x="0"
     inkscape:window-y="30"
     inkscape:window-maximized="1" />
  <metadata
     id="metadata4229">
    <rdf:RDF>
      <cc:Work
         rdf:about="">
        <dc:format>image/svg+xml</dc:format>
        <dc:type
           rdf:resource="http://purl.org/dc/dcmitype/StillImage" />
        <dc:title />
      </cc:Work>
    </rdf:RDF>
  </metadata>
  <g
     inkscape:label="Layer 1"
     inkscape:groupmode="layer"
     id="layer1"
     transform="translate(-82.754844,-428.53341)">
    <rect
       style="opacity:0.98999999;fill:#e9ddaf;fill-opacity:1;stroke:#000000;stroke-width:1.31282651;stroke-linecap:round;stroke-linejoin:round;stroke-miterlimit:4;stroke-dasharray:none;stroke-dashoffset:0;stroke-opacity:1"
       id="rect4782"
       width="38.687176"
       height="38.687176"
       x="83.411255"
       y="429.18982"
       ry="7.5000005" />
    <path
       style="fill:#0000ff"
       d="m 89.577607,431.43985 c -0.508898,0.10279 -0.404831,0.89084 -0.47335,1.33638 -0.299531,5.17345 -0.267968,10.37067 -0.408219,15.5464 -0.01225,0.16811 0.143143,0.73031 -0.163367,0.59803 -0.99323,0.0757 -2.045326,-0.1637 -3.001011,0.20834 -0.348004,0.34145 0.114972,0.83901 0.445897,0.73995 1.163301,0.10681 2.33036,-0.0217 3.491412,-0.0362 0.03496,-1.71886 0.0699,-3.4377 0.104857,-5.15656 0.158589,6.34436 0.23811,12.69981 0.533156,19.034 0.03771,0.39947 0.01003,1.18557 0.486766,1.15751 0.522302,-0.25127 0.359924,-1.09533 0.435086,-1.62132 0.24478,-5.5422 0.417363,-11.0888 0.562875,-16.63582 0.158688,4.52935 0.203872,9.07317 0.558316,13.5869 0.0024,0.43347 0.458435,0.9153 0.726876,0.45656 0.205714,-0.60871 0.09826,-1.31428 0.193105,-1.95479 0.228045,-3.84542 0.396526,-7.69568 0.530712,-11.54744 0.158726,3.37832 0.166591,6.77719 0.531123,10.1352 0.0052,0.41489 0.460663,0.8525 0.718732,0.43453 0.314646,-0.57075 0.199334,-1.30516 0.309248,-1.94786 0.197366,-2.72876 0.285426,-5.46656 0.425914,-8.19994 0.178727,2.6055 0.236425,5.2424 0.588567,7.82194 0.201962,0.48881 0.843784,0.19447 0.81676,-0.31555 0.378367,-2.29908 0.37535,-4.65135 0.604557,-6.9711 0.178187,1.90163 0.22981,3.86012 0.616054,5.72541 0.15078,0.4086 0.70292,0.35263 0.734,-0.12683 0.41103,-1.69301 0.42117,-3.48039 0.645582,-5.21183 0.17177,1.45897 0.27417,2.96442 0.614445,4.37165 0.3068,0.42222 0.79664,-0.0605 0.82123,-0.50822 0.30755,-1.20976 0.38027,-2.48645 0.547,-3.72191 0.192,1.13029 0.23019,2.36188 0.71002,3.38295 0.2884,0.339 0.74135,-0.0311 0.77762,-0.44956 0.24508,-0.82919 0.34997,-1.70417 0.50902,-2.55991 0.17152,0.79751 0.22254,1.76296 0.76062,2.34614 0.39794,0.25121 0.76422,-0.25029 0.84438,-0.68467 0.17762,-0.47576 0.25387,-1.21319 0.42902,-1.53063 0.18529,0.64767 0.20686,1.63254 0.84032,1.89028 0.55649,0.0611 0.8751,-0.65809 0.91216,-1.23447 0.0648,-0.1555 0.16332,-0.76338 0.26104,-0.39849 0.22078,0.51702 0.4695,1.26492 0.9984,1.34485 0.5392,-0.14316 0.7222,-0.96484 0.93586,-1.39732 0.30209,0.44941 0.55812,1.24413 1.13569,1.18567 0.43277,-0.16966 0.58909,-0.74716 0.89035,-1.10276 0.29355,0.44669 0.71004,1.12264 1.25885,0.82077 0.27552,-0.12816 0.42982,-0.46897 0.66289,-0.65686 0.47705,0.49569 1.21627,0.76763 1.76425,0.26362 0.20463,-0.22124 0.46741,-0.19169 0.65009,0.0368 0.51317,0.38898 1.10839,0.0583 1.63524,-0.049 0.44735,-0.006 0.84832,0.14974 1.28679,0.25819 -0.30409,-0.45403 -0.53953,-1.28853 -1.14339,-1.20159 -0.44224,-0.11129 -0.85893,0.24589 -1.27952,0.22251 -0.41128,-0.23437 -0.94932,-0.73091 -1.37698,-0.24474 -0.19993,0.23061 -0.59222,0.50999 -0.76902,0.088 -0.47455,-0.58626 -1.31665,-0.32082 -1.64063,0.33919 -0.24356,0.0923 -0.34351,-0.34735 -0.52967,-0.46916 -0.17481,-0.27419 -0.53139,-0.76045 -0.82898,-0.40898 -0.23454,0.32433 -0.44781,0.69126 -0.75057,0.92538 -0.28648,-0.4284 -0.51433,-1.2099 -1.07112,-1.11868 -0.43033,0.26799 -0.65375,0.81775 -0.88583,1.29832 -0.20906,-0.58966 -0.46833,-1.47371 -1.1098,-1.45803 -0.62241,0.13958 -0.67398,1.12309 -0.90255,1.60689 -0.20145,-0.65816 -0.22686,-1.58269 -0.7929,-1.96881 -0.53757,-0.15386 -0.77803,0.62838 -0.91973,1.10362 -0.0968,0.28172 -0.18037,0.74206 -0.26832,0.91715 -0.19592,-0.85349 -0.23544,-1.88109 -0.78185,-2.54066 -0.42467,-0.27971 -0.78053,0.33112 -0.81558,0.7863 -0.16824,0.67581 -0.26979,1.37187 -0.4145,2.05489 -0.22399,-1.15097 -0.17451,-2.49677 -0.74272,-3.53654 -0.31718,-0.36334 -0.84943,0.035 -0.78645,0.53358 -0.18161,1.08997 -0.3062,2.19182 -0.45409,3.28879 -0.19984,-1.57183 -0.21062,-3.21744 -0.663315,-4.72272 -0.18753,-0.38268 -0.764032,-0.33576 -0.796982,0.15813 -0.25786,1.63159 -0.36228,3.29269 -0.53809,4.9337 -0.19956,-2.14016 -0.20456,-4.32588 -0.62537,-6.42514 -0.132046,-0.42496 -0.718689,-0.45837 -0.774138,0.0497 -0.349026,1.48762 -0.303056,3.05657 -0.456113,4.58129 -0.04435,0.69412 -0.08535,1.39214 -0.133471,2.08349 -0.13597,-2.85937 -0.331878,-5.72714 -0.59962,-8.56608 -0.120427,-0.44152 -0.719755,-0.43577 -0.76338,0.0653 -0.336971,1.54049 -0.264745,3.15732 -0.408184,4.73092 -0.07813,1.4099 -0.149817,2.967 -0.229976,4.28316 -0.198835,-3.86527 -0.267713,-7.75977 -0.609364,-11.60705 -0.213932,-0.51012 -0.925799,-0.14914 -0.830566,0.38431 -0.272786,3.92365 -0.388642,7.85948 -0.545957,11.79143 -0.151575,-5.19004 -0.34642,-10.38759 -0.632197,-15.56411 -0.04163,-0.40176 -0.522562,-0.59697 -0.679609,-0.1842 -0.338019,1.26702 -0.219492,2.62842 -0.330172,3.93648 -0.154744,4.11305 -0.248968,8.22888 -0.361654,12.34379 -0.158373,-6.6576 -0.288743,-13.32109 -0.566898,-19.97109 -0.03993,-0.4103 -0.03133,-1.05663 -0.449677,-1.18165 z"
       id="path4449"
       inkscape:connector-curvature="0" />
    <text
       xml:space="preserve"
       style="font-style:normal;font-weight:normal;font-size:7.78195477px;line-height:92.00000167%;font-family:sans-serif;text-align:end;letter-spacing:0px;word-spacing:0px;text-anchor:end;fill:#ffffff;fill-opacity:1;stroke:none;stroke-width:1px;stroke-linecap:butt;stroke-linejoin:miter;stroke-opacity:1"
       x="117.6718"
       y="440.91281"
       id="text4803"
       sodipodi:linespacing="92.000002%"><tspan
         sodipodi:role="line"
         x="117.6718"
         y="440.91281"
         style="line-height:92.00000167%;text-align:end;text-anchor:end;fill:#ffffff"
         id="tspan4137">SPTK</tspan></text>
  </g>
</svg>
